<?xml version="1.0" encoding="utf-8"?>
<!-- Generator: Adobe Illustrator 16.0.0, SVG Export Plug-In . SVG Version: 6.00 Build 0)  -->
<!DOCTYPE svg PUBLIC "-//W3C//DTD SVG 1.1//EN" "http://www.w3.org/Graphics/SVG/1.1/DTD/svg11.dtd">
<svg version="1.1" id="Layer_1" xmlns="http://www.w3.org/2000/svg" xmlns:xlink="http://www.w3.org/1999/xlink" x="0px" y="0px"
	 width="640px" height="361.904px" viewBox="0 0 640 361.904" enable-background="new 0 0 640 361.904" xml:space="preserve">
<g>
	<rect x="56.973" y="23.789" fill="none" width="170.748" height="28.912"/>
	<path d="M96.942,38.053c0,4.57-0.724,7.98-2.171,10.23s-3.653,3.375-6.618,3.375s-5.168-1.119-6.609-3.357
		s-2.162-5.654-2.162-10.248c0-4.582,0.724-7.998,2.171-10.248s3.647-3.375,6.601-3.375c2.965,0,5.171,1.125,6.618,3.375
		S96.942,33.471,96.942,38.053z M93.233,38.053c0-3.855-0.396-6.609-1.187-8.262s-2.089-2.479-3.894-2.479
		c-1.793,0-3.085,0.826-3.876,2.479s-1.187,4.406-1.187,8.262c0,3.844,0.396,6.592,1.187,8.244s2.083,2.479,3.876,2.479
		c1.805,0,3.103-0.823,3.894-2.47S93.233,41.909,93.233,38.053z"/>
	<path d="M105.626,33.975c0.516-0.961,1.228-1.699,2.136-2.215s1.96-0.773,3.155-0.773c2.367,0,4.23,0.911,5.59,2.733
		s2.039,4.333,2.039,7.532c0,3.246-0.683,5.792-2.048,7.638s-3.237,2.769-5.616,2.769c-1.172,0-2.206-0.255-3.103-0.765
		s-1.614-1.251-2.153-2.224v2.479h-3.234V23.797h3.234V33.975z M115.136,41.323c0-2.508-0.398-4.4-1.195-5.678
		s-1.975-1.916-3.533-1.916c-1.57,0-2.76,0.642-3.568,1.925s-1.213,3.173-1.213,5.669c0,2.484,0.404,4.371,1.213,5.66
		s1.998,1.934,3.568,1.934c1.559,0,2.736-0.639,3.533-1.916S115.136,43.831,115.136,41.323z"/>
	<path d="M131.22,51.5V33.975h-5.572v-2.514h8.807V51.5c0,2.285-0.524,4.046-1.573,5.282s-2.54,1.854-4.474,1.854h-4.465v-2.742
		h4.113c1.055,0,1.846-0.366,2.373-1.099S131.22,52.965,131.22,51.5z M131.22,23.797h3.234v4.096h-3.234V23.797z"/>
	<path d="M162.034,39.688v1.582h-14.01v0.105c-0.094,2.684,0.419,4.611,1.538,5.783s2.698,1.758,4.737,1.758
		c1.031,0,2.109-0.164,3.234-0.492s2.326-0.826,3.604-1.494v3.217c-1.23,0.504-2.417,0.882-3.56,1.134s-2.247,0.378-3.313,0.378
		c-3.059,0-5.449-0.917-7.172-2.751s-2.584-4.362-2.584-7.585c0-3.141,0.844-5.648,2.531-7.523s3.938-2.812,6.75-2.812
		c2.508,0,4.485,0.85,5.933,2.549S161.94,37.286,162.034,39.688z M158.8,38.739c-0.141-1.359-0.636-2.534-1.485-3.524
		s-2.071-1.485-3.665-1.485c-1.559,0-2.842,0.516-3.85,1.547s-1.559,2.191-1.652,3.48L158.8,38.739z"/>
	<path d="M182.671,50.147c-0.867,0.504-1.761,0.882-2.681,1.134s-1.86,0.378-2.821,0.378c-3.047,0-5.429-0.914-7.146-2.742
		s-2.575-4.359-2.575-7.594s0.858-5.766,2.575-7.594s4.099-2.742,7.146-2.742c0.949,0,1.875,0.123,2.777,0.369
		s1.811,0.627,2.725,1.143v3.393c-0.855-0.762-1.714-1.312-2.575-1.652s-1.837-0.51-2.927-0.51c-2.027,0-3.586,0.656-4.676,1.969
		s-1.635,3.188-1.635,5.625c0,2.426,0.548,4.298,1.644,5.616s2.651,1.978,4.667,1.978c1.125,0,2.133-0.173,3.023-0.519
		s1.717-0.882,2.479-1.608V50.147z"/>
	<path d="M196.487,25.872v5.59h7.348v2.514h-7.348v10.688c0,1.453,0.275,2.467,0.826,3.041s1.512,0.861,2.883,0.861h3.639v2.584
		h-3.955c-2.426,0-4.137-0.486-5.133-1.459s-1.494-2.648-1.494-5.027V33.975h-5.256v-2.514h5.256v-5.59H196.487z"/>
</g>
<g>
	<rect x="56.973" y="166.85" fill="none" width="170.748" height="28.912"/>
	<path d="M77.659,168.054h4.852l10.266,21.533v-21.533h3.779v26.156h-4.852l-10.266-21.533v21.533h-3.779V168.054z"/>
	<path d="M102.427,186.757v-12.199h3.234v12.199c0,1.77,0.313,3.07,0.94,3.902s1.597,1.248,2.909,1.248
		c1.523,0,2.689-0.536,3.498-1.608s1.213-2.61,1.213-4.614v-11.127h3.252v19.652h-3.252v-2.953
		c-0.574,1.137-1.356,1.998-2.347,2.584s-2.147,0.879-3.472,0.879c-2.016,0-3.516-0.659-4.5-1.978S102.427,189.429,102.427,186.757z
		"/>
	<path d="M132.556,176.526c0.398-0.844,0.905-1.468,1.521-1.872s1.356-0.606,2.224-0.606c1.582,0,2.698,0.612,3.349,1.837
		s0.976,3.53,0.976,6.917v11.408h-2.953v-11.268c0-2.777-0.155-4.503-0.466-5.177s-0.876-1.011-1.696-1.011
		c-0.938,0-1.579,0.36-1.925,1.081s-0.519,2.423-0.519,5.106v11.268h-2.953v-11.268c0-2.812-0.167-4.547-0.501-5.203
		s-0.935-0.984-1.802-0.984c-0.855,0-1.45,0.36-1.784,1.081s-0.501,2.423-0.501,5.106v11.268h-2.936v-19.688h2.936v1.688
		c0.387-0.703,0.87-1.239,1.45-1.608s1.239-0.554,1.978-0.554c0.891,0,1.632,0.205,2.224,0.615S132.228,175.694,132.556,176.526z"/>
	<path d="M148.974,177.036c0.516-0.961,1.228-1.699,2.136-2.215s1.96-0.773,3.155-0.773c2.367,0,4.23,0.911,5.59,2.733
		s2.039,4.333,2.039,7.532c0,3.246-0.683,5.792-2.048,7.638s-3.237,2.769-5.616,2.769c-1.172,0-2.206-0.255-3.103-0.765
		s-1.614-1.251-2.153-2.224v2.479h-3.234v-27.352h3.234V177.036z M158.483,184.384c0-2.508-0.398-4.4-1.195-5.678
		s-1.975-1.916-3.533-1.916c-1.57,0-2.76,0.642-3.568,1.925s-1.213,3.173-1.213,5.669c0,2.484,0.404,4.371,1.213,5.66
		s1.998,1.934,3.568,1.934c1.559,0,2.736-0.639,3.533-1.916S158.483,186.892,158.483,184.384z"/>
	<path d="M183.708,182.749v1.582h-14.01v0.105c-0.094,2.684,0.419,4.611,1.538,5.783s2.698,1.758,4.737,1.758
		c1.031,0,2.109-0.164,3.234-0.492s2.326-0.826,3.604-1.494v3.217c-1.23,0.504-2.417,0.882-3.56,1.134s-2.247,0.378-3.313,0.378
		c-3.059,0-5.449-0.917-7.172-2.751s-2.584-4.362-2.584-7.585c0-3.141,0.844-5.648,2.531-7.523s3.938-2.812,6.75-2.812
		c2.508,0,4.485,0.85,5.933,2.549S183.614,180.347,183.708,182.749z M180.474,181.8c-0.141-1.359-0.636-2.534-1.485-3.524
		s-2.071-1.485-3.665-1.485c-1.559,0-2.842,0.516-3.85,1.547s-1.559,2.191-1.652,3.48L180.474,181.8z"/>
	<path d="M205.997,178.583c-0.691-0.539-1.395-0.932-2.109-1.178s-1.5-0.369-2.355-0.369c-2.016,0-3.557,0.633-4.623,1.898
		s-1.6,3.094-1.6,5.484v9.791h-3.252v-19.688h3.252v3.85c0.539-1.395,1.368-2.464,2.487-3.208s2.446-1.116,3.981-1.116
		c0.797,0,1.541,0.1,2.232,0.299s1.354,0.51,1.986,0.932V178.583z"/>
</g>
<g>
	<rect x="56.973" y="303.073" fill="none" width="170.748" height="28.911"/>
	<path d="M70.021,304.189h14.572v2.988h-5.502v20.268h5.502v2.988H70.021v-2.988h5.502v-20.268h-5.502V304.189z"/>
	<path d="M106.637,318.234v12.199h-3.252v-12.199c0-1.77-0.311-3.07-0.932-3.902s-1.594-1.248-2.918-1.248
		c-1.512,0-2.675,0.535-3.489,1.607s-1.222,2.611-1.222,4.615v11.127H91.59v-19.688h3.234v2.953
		c0.574-1.125,1.354-1.979,2.338-2.559s2.15-0.869,3.498-0.869c2.004,0,3.501,0.658,4.491,1.977S106.637,315.562,106.637,318.234z"
		/>
	<path d="M120.629,305.156v5.59h7.348v2.514h-7.348v10.688c0,1.453,0.275,2.467,0.826,3.041s1.512,0.861,2.883,0.861h3.639v2.584
		h-3.955c-2.426,0-4.137-0.486-5.133-1.459s-1.494-2.648-1.494-5.027V313.26h-5.256v-2.514h5.256v-5.59H120.629z"/>
	<path d="M151.197,318.973v1.582h-14.01v0.105c-0.094,2.684,0.419,4.611,1.538,5.783s2.698,1.758,4.737,1.758
		c1.031,0,2.109-0.164,3.234-0.492s2.326-0.826,3.604-1.494v3.217c-1.23,0.504-2.417,0.881-3.56,1.133s-2.247,0.379-3.313,0.379
		c-3.059,0-5.449-0.918-7.172-2.752s-2.584-4.361-2.584-7.584c0-3.141,0.844-5.648,2.531-7.523s3.938-2.812,6.75-2.812
		c2.508,0,4.485,0.85,5.933,2.549S151.104,316.57,151.197,318.973z M147.963,318.023c-0.141-1.359-0.636-2.535-1.485-3.525
		s-2.071-1.484-3.665-1.484c-1.559,0-2.842,0.516-3.85,1.547s-1.559,2.191-1.652,3.48L147.963,318.023z"/>
	<path d="M171.5,329.168c0,2.953-0.697,5.191-2.092,6.715s-3.445,2.285-6.152,2.285c-0.891,0-1.822-0.082-2.795-0.246
		s-1.945-0.404-2.918-0.721v-3.199c1.148,0.539,2.191,0.938,3.129,1.195s1.799,0.387,2.584,0.387c1.746,0,3.018-0.475,3.814-1.424
		s1.195-2.455,1.195-4.518v-0.141v-2.197c-0.516,1.102-1.219,1.922-2.109,2.461s-1.975,0.809-3.252,0.809
		c-2.297,0-4.131-0.92-5.502-2.76s-2.057-4.301-2.057-7.383c0-3.094,0.686-5.561,2.057-7.4s3.205-2.76,5.502-2.76
		c1.266,0,2.338,0.252,3.217,0.756s1.594,1.283,2.145,2.338v-2.549h3.234V329.168z M168.266,320.432c0-2.426-0.396-4.27-1.187-5.529
		s-1.942-1.889-3.454-1.889c-1.582,0-2.789,0.629-3.621,1.889s-1.248,3.104-1.248,5.529s0.419,4.273,1.257,5.545
		s2.054,1.908,3.647,1.908c1.488,0,2.628-0.639,3.419-1.916S168.266,322.846,168.266,320.432z"/>
	<path d="M194.545,318.973v1.582h-14.01v0.105c-0.094,2.684,0.419,4.611,1.538,5.783s2.698,1.758,4.737,1.758
		c1.031,0,2.109-0.164,3.234-0.492s2.326-0.826,3.604-1.494v3.217c-1.23,0.504-2.417,0.881-3.56,1.133s-2.247,0.379-3.313,0.379
		c-3.059,0-5.449-0.918-7.172-2.752s-2.584-4.361-2.584-7.584c0-3.141,0.844-5.648,2.531-7.523s3.938-2.812,6.75-2.812
		c2.508,0,4.485,0.85,5.933,2.549S194.451,316.57,194.545,318.973z M191.311,318.023c-0.141-1.359-0.636-2.535-1.485-3.525
		s-2.071-1.484-3.665-1.484c-1.559,0-2.842,0.516-3.85,1.547s-1.559,2.191-1.652,3.48L191.311,318.023z"/>
	<path d="M216.834,314.807c-0.691-0.539-1.395-0.932-2.109-1.178s-1.5-0.369-2.355-0.369c-2.016,0-3.557,0.633-4.623,1.898
		s-1.6,3.094-1.6,5.484v9.791h-3.252v-19.688h3.252v3.85c0.539-1.395,1.368-2.465,2.487-3.209s2.446-1.115,3.981-1.115
		c0.797,0,1.541,0.1,2.232,0.299s1.354,0.51,1.986,0.932V314.807z"/>
</g>
<g>
	<rect x="283.217" y="23.789" fill="none" width="350.34" height="28.912"/>
	<path d="M332.124,24.905h3.568v23.256h12.674v2.988h-16.242V24.905z"/>
	<path d="M355.573,31.532h8.279v17.104h6.416v2.514h-16.066v-2.514h6.416v-14.59h-5.045V31.532z M360.618,23.885h3.234v4.078h-3.234
		V23.885z"/>
	<path d="M388.796,32.147v3.164c-0.926-0.539-1.857-0.943-2.795-1.213s-1.893-0.404-2.865-0.404c-1.465,0-2.558,0.237-3.278,0.712
		s-1.081,1.198-1.081,2.171c0,0.879,0.27,1.535,0.809,1.969s1.881,0.855,4.025,1.266l1.301,0.246
		c1.605,0.305,2.821,0.914,3.647,1.828s1.239,2.104,1.239,3.568c0,1.945-0.691,3.466-2.074,4.562s-3.305,1.644-5.766,1.644
		c-0.973,0-1.992-0.103-3.059-0.308s-2.221-0.513-3.463-0.923v-3.34c1.207,0.621,2.361,1.087,3.463,1.397s2.145,0.466,3.129,0.466
		c1.43,0,2.537-0.29,3.322-0.87s1.178-1.392,1.178-2.435c0-1.5-1.436-2.537-4.307-3.111l-0.141-0.035l-1.213-0.246
		c-1.863-0.363-3.223-0.976-4.078-1.837s-1.283-2.036-1.283-3.524c0-1.887,0.639-3.343,1.916-4.368s3.1-1.538,5.467-1.538
		c1.055,0,2.068,0.097,3.041,0.29S387.858,31.76,388.796,32.147z"/>
	<path d="M404.159,25.872v5.59h7.348v2.514h-7.348v10.688c0,1.453,0.275,2.467,0.826,3.041s1.512,0.861,2.883,0.861h3.639v2.584
		h-3.955c-2.426,0-4.137-0.486-5.133-1.459s-1.494-2.648-1.494-5.027V33.975h-5.256v-2.514h5.256v-5.59H404.159z"/>
	<path d="M435.167,34.256l-14.941,5.625l14.941,5.572v3.217l-18.58-7.348v-2.918l18.58-7.348V34.256z"/>
	<path d="M456.331,38.053c0,4.57-0.724,7.98-2.171,10.23s-3.653,3.375-6.618,3.375s-5.168-1.119-6.609-3.357
		s-2.162-5.654-2.162-10.248c0-4.582,0.724-7.998,2.171-10.248s3.647-3.375,6.601-3.375c2.965,0,5.171,1.125,6.618,3.375
		S456.331,33.471,456.331,38.053z M452.622,38.053c0-3.855-0.396-6.609-1.187-8.262s-2.089-2.479-3.894-2.479
		c-1.793,0-3.085,0.826-3.876,2.479s-1.187,4.406-1.187,8.262c0,3.844,0.396,6.592,1.187,8.244s2.083,2.479,3.876,2.479
		c1.805,0,3.103-0.823,3.894-2.47S452.622,41.909,452.622,38.053z"/>
	<path d="M465.015,33.975c0.516-0.961,1.228-1.699,2.136-2.215s1.96-0.773,3.155-0.773c2.367,0,4.23,0.911,5.59,2.733
		s2.039,4.333,2.039,7.532c0,3.246-0.683,5.792-2.048,7.638s-3.237,2.769-5.616,2.769c-1.172,0-2.206-0.255-3.103-0.765
		s-1.614-1.251-2.153-2.224v2.479h-3.234V23.797h3.234V33.975z M474.524,41.323c0-2.508-0.398-4.4-1.195-5.678
		s-1.975-1.916-3.533-1.916c-1.57,0-2.76,0.642-3.568,1.925s-1.213,3.173-1.213,5.669c0,2.484,0.404,4.371,1.213,5.66
		s1.998,1.934,3.568,1.934c1.559,0,2.736-0.639,3.533-1.916S474.524,43.831,474.524,41.323z"/>
	<path d="M490.608,51.5V33.975h-5.572v-2.514h8.807V51.5c0,2.285-0.524,4.046-1.573,5.282s-2.54,1.854-4.474,1.854h-4.465v-2.742
		h4.113c1.055,0,1.846-0.366,2.373-1.099S490.608,52.965,490.608,51.5z M490.608,23.797h3.234v4.096h-3.234V23.797z"/>
	<path d="M521.423,39.688v1.582h-14.01v0.105c-0.094,2.684,0.419,4.611,1.538,5.783s2.698,1.758,4.737,1.758
		c1.031,0,2.109-0.164,3.234-0.492s2.326-0.826,3.604-1.494v3.217c-1.23,0.504-2.417,0.882-3.56,1.134s-2.247,0.378-3.313,0.378
		c-3.059,0-5.449-0.917-7.172-2.751s-2.584-4.362-2.584-7.585c0-3.141,0.844-5.648,2.531-7.523s3.938-2.812,6.75-2.812
		c2.508,0,4.485,0.85,5.933,2.549S521.329,37.286,521.423,39.688z M518.188,38.739c-0.141-1.359-0.636-2.534-1.485-3.524
		s-2.071-1.485-3.665-1.485c-1.559,0-2.842,0.516-3.85,1.547s-1.559,2.191-1.652,3.48L518.188,38.739z"/>
	<path d="M542.06,50.147c-0.867,0.504-1.761,0.882-2.681,1.134s-1.86,0.378-2.821,0.378c-3.047,0-5.429-0.914-7.146-2.742
		s-2.575-4.359-2.575-7.594s0.858-5.766,2.575-7.594s4.099-2.742,7.146-2.742c0.949,0,1.875,0.123,2.777,0.369
		s1.811,0.627,2.725,1.143v3.393c-0.855-0.762-1.714-1.312-2.575-1.652s-1.837-0.51-2.927-0.51c-2.027,0-3.586,0.656-4.676,1.969
		s-1.635,3.188-1.635,5.625c0,2.426,0.548,4.298,1.644,5.616s2.651,1.978,4.667,1.978c1.125,0,2.133-0.173,3.023-0.519
		s1.717-0.882,2.479-1.608V50.147z"/>
	<path d="M555.876,25.872v5.59h7.348v2.514h-7.348v10.688c0,1.453,0.275,2.467,0.826,3.041s1.512,0.861,2.883,0.861h3.639v2.584
		h-3.955c-2.426,0-4.137-0.486-5.133-1.459s-1.494-2.648-1.494-5.027V33.975h-5.256v-2.514h5.256v-5.59H555.876z"/>
	<path d="M568.304,34.256v-3.199l18.58,7.348v2.918l-18.58,7.348v-3.217l14.941-5.572L568.304,34.256z"/>
</g>
<g>
	<rect x="283.217" y="166.851" fill="none" width="350.34" height="28.911"/>
	<path d="M332.124,167.966h3.568v23.256h12.674v2.989h-16.242V167.966z"/>
	<path d="M355.573,174.593h8.279v17.104h6.416v2.514h-16.066v-2.514h6.416v-14.59h-5.045V174.593z M360.618,166.947h3.234v4.078
		h-3.234V166.947z"/>
	<path d="M388.796,175.208v3.164c-0.926-0.539-1.857-0.943-2.795-1.213s-1.893-0.404-2.865-0.404c-1.465,0-2.558,0.237-3.278,0.712
		s-1.081,1.198-1.081,2.171c0,0.879,0.27,1.535,0.809,1.969s1.881,0.855,4.025,1.266l1.301,0.246
		c1.605,0.305,2.821,0.914,3.647,1.828s1.239,2.104,1.239,3.568c0,1.945-0.691,3.466-2.074,4.562
		c-1.383,1.095-3.305,1.644-5.766,1.644c-0.973,0-1.992-0.104-3.059-0.309s-2.221-0.512-3.463-0.922v-3.34
		c1.207,0.621,2.361,1.087,3.463,1.397s2.145,0.466,3.129,0.466c1.43,0,2.537-0.29,3.322-0.87s1.178-1.392,1.178-2.435
		c0-1.5-1.436-2.537-4.307-3.111l-0.141-0.035l-1.213-0.246c-1.863-0.363-3.223-0.976-4.078-1.837s-1.283-2.036-1.283-3.524
		c0-1.887,0.639-3.343,1.916-4.368s3.1-1.538,5.467-1.538c1.055,0,2.068,0.097,3.041,0.29S387.858,174.822,388.796,175.208z"/>
	<path d="M404.159,168.933v5.59h7.348v2.514h-7.348v10.688c0,1.453,0.275,2.467,0.826,3.041s1.512,0.861,2.883,0.861h3.639v2.584
		h-3.955c-2.426,0-4.137-0.487-5.133-1.459s-1.494-2.648-1.494-5.027v-10.688h-5.256v-2.514h5.256v-5.59H404.159z"/>
	<path d="M435.167,177.318l-14.941,5.625l14.941,5.572v3.217l-18.58-7.348v-2.918l18.58-7.348V177.318z"/>
	<path d="M437.048,168.054h4.852l10.266,21.533v-21.533h3.779v26.157h-4.852l-10.266-21.534v21.534h-3.779V168.054z"/>
	<path d="M461.815,186.757v-12.199h3.234v12.199c0,1.77,0.313,3.07,0.94,3.902s1.597,1.248,2.909,1.248
		c1.523,0,2.689-0.536,3.498-1.608s1.213-2.61,1.213-4.614v-11.127h3.252v19.653h-3.252v-2.954
		c-0.574,1.137-1.356,1.998-2.347,2.584c-0.99,0.586-2.147,0.879-3.472,0.879c-2.016,0-3.516-0.66-4.5-1.978
		C462.308,191.424,461.815,189.429,461.815,186.757z"/>
	<path d="M491.944,176.527c0.398-0.844,0.905-1.468,1.521-1.872s1.356-0.606,2.224-0.606c1.582,0,2.698,0.612,3.349,1.837
		s0.976,3.53,0.976,6.917v11.409h-2.953v-11.268c0-2.777-0.155-4.503-0.466-5.177s-0.876-1.011-1.696-1.011
		c-0.938,0-1.579,0.36-1.925,1.081s-0.519,2.423-0.519,5.106v11.268h-2.953v-11.268c0-2.812-0.167-4.547-0.501-5.203
		s-0.935-0.984-1.802-0.984c-0.855,0-1.45,0.36-1.784,1.081s-0.501,2.423-0.501,5.106v11.268h-2.936v-19.688h2.936v1.688
		c0.387-0.703,0.87-1.239,1.45-1.608s1.239-0.554,1.978-0.554c0.891,0,1.632,0.205,2.224,0.615S491.616,175.695,491.944,176.527z"/>
	<path d="M508.362,177.037c0.516-0.961,1.228-1.699,2.136-2.215s1.96-0.773,3.155-0.773c2.367,0,4.23,0.911,5.59,2.733
		s2.039,4.333,2.039,7.532c0,3.246-0.683,5.792-2.048,7.638c-1.365,1.845-3.237,2.769-5.616,2.769c-1.172,0-2.206-0.256-3.103-0.766
		c-0.896-0.509-1.614-1.25-2.153-2.223v2.479h-3.234v-27.352h3.234V177.037z M517.872,184.384c0-2.508-0.398-4.4-1.195-5.678
		s-1.975-1.916-3.533-1.916c-1.57,0-2.76,0.642-3.568,1.925s-1.213,3.173-1.213,5.669c0,2.484,0.404,4.371,1.213,5.66
		s1.998,1.934,3.568,1.934c1.559,0,2.736-0.639,3.533-1.916S517.872,186.892,517.872,184.384z"/>
	<path d="M543.097,182.75v1.582h-14.01v0.105c-0.094,2.684,0.419,4.611,1.538,5.783s2.698,1.758,4.737,1.758
		c1.031,0,2.109-0.164,3.234-0.492s2.326-0.826,3.604-1.494v3.217c-1.23,0.504-2.417,0.881-3.56,1.133s-2.247,0.379-3.313,0.379
		c-3.059,0-5.449-0.918-7.172-2.751c-1.723-1.834-2.584-4.362-2.584-7.585c0-3.141,0.844-5.648,2.531-7.523s3.938-2.812,6.75-2.812
		c2.508,0,4.485,0.85,5.933,2.549S543.003,180.347,543.097,182.75z M539.862,181.8c-0.141-1.359-0.636-2.534-1.485-3.524
		s-2.071-1.485-3.665-1.485c-1.559,0-2.842,0.516-3.85,1.547s-1.559,2.191-1.652,3.48L539.862,181.8z"/>
	<path d="M565.386,178.583c-0.691-0.539-1.395-0.932-2.109-1.178s-1.5-0.369-2.355-0.369c-2.016,0-3.557,0.633-4.623,1.898
		s-1.6,3.094-1.6,5.484v9.792h-3.252v-19.688h3.252v3.85c0.539-1.395,1.368-2.464,2.487-3.208s2.446-1.116,3.981-1.116
		c0.797,0,1.541,0.1,2.232,0.299s1.354,0.51,1.986,0.932V178.583z"/>
	<path d="M568.304,177.318v-3.199l18.58,7.348v2.918l-18.58,7.348v-3.217l14.941-5.572L568.304,177.318z"/>
</g>
<g>
	<rect x="283.217" y="303.073" fill="none" width="350.34" height="28.912"/>
	<path d="M321.287,304.189h3.568v23.256h12.674v2.988h-16.242V304.189z"/>
	<path d="M344.736,310.816h8.279v17.104h6.416v2.514h-16.066v-2.514h6.416v-14.59h-5.045V310.816z M349.781,303.17h3.234v4.078
		h-3.234V303.17z"/>
	<path d="M377.959,311.432v3.164c-0.926-0.539-1.857-0.943-2.795-1.213s-1.893-0.404-2.865-0.404c-1.465,0-2.558,0.236-3.278,0.711
		s-1.081,1.199-1.081,2.172c0,0.879,0.27,1.535,0.809,1.969s1.881,0.855,4.025,1.266l1.301,0.246
		c1.605,0.305,2.821,0.914,3.647,1.828s1.239,2.104,1.239,3.568c0,1.945-0.691,3.465-2.074,4.561s-3.305,1.645-5.766,1.645
		c-0.973,0-1.992-0.104-3.059-0.309s-2.221-0.512-3.463-0.922v-3.34c1.207,0.621,2.361,1.086,3.463,1.396s2.145,0.467,3.129,0.467
		c1.43,0,2.537-0.291,3.322-0.871s1.178-1.391,1.178-2.434c0-1.5-1.436-2.537-4.307-3.111l-0.141-0.035l-1.213-0.246
		c-1.863-0.363-3.223-0.977-4.078-1.838s-1.283-2.035-1.283-3.523c0-1.887,0.639-3.344,1.916-4.369s3.1-1.537,5.467-1.537
		c1.055,0,2.068,0.096,3.041,0.289S377.021,311.045,377.959,311.432z"/>
	<path d="M393.322,305.156v5.59h7.348v2.514h-7.348v10.688c0,1.453,0.275,2.467,0.826,3.041s1.512,0.861,2.883,0.861h3.639v2.584
		h-3.955c-2.426,0-4.137-0.486-5.133-1.459s-1.494-2.648-1.494-5.027V313.26h-5.256v-2.514h5.256v-5.59H393.322z"/>
	<path d="M424.33,313.541l-14.941,5.625l14.941,5.572v3.217l-18.58-7.348v-2.918l18.58-7.348V313.541z"/>
	<path d="M429.41,304.189h14.572v2.988h-5.502v20.268h5.502v2.988H429.41v-2.988h5.502v-20.268h-5.502V304.189z"/>
	<path d="M466.025,318.234v12.199h-3.252v-12.199c0-1.77-0.311-3.07-0.932-3.902s-1.594-1.248-2.918-1.248
		c-1.512,0-2.675,0.535-3.489,1.607s-1.222,2.611-1.222,4.615v11.127h-3.234v-19.688h3.234v2.953
		c0.574-1.125,1.354-1.979,2.338-2.559s2.15-0.869,3.498-0.869c2.004,0,3.501,0.658,4.491,1.977S466.025,315.562,466.025,318.234z"
		/>
	<path d="M480.018,305.156v5.59h7.348v2.514h-7.348v10.688c0,1.453,0.275,2.467,0.826,3.041s1.512,0.861,2.883,0.861h3.639v2.584
		h-3.955c-2.426,0-4.137-0.486-5.133-1.459s-1.494-2.648-1.494-5.027V313.26h-5.256v-2.514h5.256v-5.59H480.018z"/>
	<path d="M510.586,318.973v1.582h-14.01v0.105c-0.094,2.684,0.419,4.611,1.538,5.783s2.698,1.758,4.737,1.758
		c1.031,0,2.109-0.164,3.234-0.492s2.326-0.826,3.604-1.494v3.217c-1.23,0.504-2.417,0.881-3.56,1.133s-2.247,0.379-3.313,0.379
		c-3.059,0-5.449-0.918-7.172-2.752s-2.584-4.361-2.584-7.584c0-3.141,0.844-5.648,2.531-7.523s3.938-2.812,6.75-2.812
		c2.508,0,4.485,0.85,5.933,2.549S510.492,316.57,510.586,318.973z M507.352,318.023c-0.141-1.359-0.636-2.535-1.485-3.525
		s-2.071-1.484-3.665-1.484c-1.559,0-2.842,0.516-3.85,1.547s-1.559,2.191-1.652,3.48L507.352,318.023z"/>
	<path d="M530.889,329.168c0,2.953-0.697,5.191-2.092,6.715s-3.445,2.285-6.152,2.285c-0.891,0-1.822-0.082-2.795-0.246
		s-1.945-0.404-2.918-0.721v-3.199c1.148,0.539,2.191,0.938,3.129,1.195s1.799,0.387,2.584,0.387c1.746,0,3.018-0.475,3.814-1.424
		s1.195-2.455,1.195-4.518v-0.141v-2.197c-0.516,1.102-1.219,1.922-2.109,2.461s-1.975,0.809-3.252,0.809
		c-2.297,0-4.131-0.92-5.502-2.76s-2.057-4.301-2.057-7.383c0-3.094,0.686-5.561,2.057-7.4s3.205-2.76,5.502-2.76
		c1.266,0,2.338,0.252,3.217,0.756s1.594,1.283,2.145,2.338v-2.549h3.234V329.168z M527.654,320.432c0-2.426-0.396-4.27-1.187-5.529
		s-1.942-1.889-3.454-1.889c-1.582,0-2.789,0.629-3.621,1.889s-1.248,3.104-1.248,5.529s0.419,4.273,1.257,5.545
		s2.054,1.908,3.647,1.908c1.488,0,2.628-0.639,3.419-1.916S527.654,322.846,527.654,320.432z"/>
	<path d="M553.934,318.973v1.582h-14.01v0.105c-0.094,2.684,0.419,4.611,1.538,5.783s2.698,1.758,4.737,1.758
		c1.031,0,2.109-0.164,3.234-0.492s2.326-0.826,3.604-1.494v3.217c-1.23,0.504-2.417,0.881-3.56,1.133s-2.247,0.379-3.313,0.379
		c-3.059,0-5.449-0.918-7.172-2.752s-2.584-4.361-2.584-7.584c0-3.141,0.844-5.648,2.531-7.523s3.938-2.812,6.75-2.812
		c2.508,0,4.485,0.85,5.933,2.549S553.84,316.57,553.934,318.973z M550.699,318.023c-0.141-1.359-0.636-2.535-1.485-3.525
		s-2.071-1.484-3.665-1.484c-1.559,0-2.842,0.516-3.85,1.547s-1.559,2.191-1.652,3.48L550.699,318.023z"/>
	<path d="M576.223,314.807c-0.691-0.539-1.395-0.932-2.109-1.178s-1.5-0.369-2.355-0.369c-2.016,0-3.557,0.633-4.623,1.898
		s-1.6,3.094-1.6,5.484v9.791h-3.252v-19.688h3.252v3.85c0.539-1.395,1.368-2.465,2.487-3.209s2.446-1.115,3.981-1.115
		c0.797,0,1.541,0.1,2.232,0.299s1.354,0.51,1.986,0.932V314.807z"/>
	<path d="M579.141,313.541v-3.199l18.58,7.348v2.918l-18.58,7.348v-3.217l14.941-5.572L579.141,313.541z"/>
</g>
<g>
	<g>
		<line fill="none" stroke="#FF0000" stroke-width="3" stroke-miterlimit="10" x1="458.5" y1="69.775" x2="458.5" y2="124.775"/>
		<g>
			<path fill="#FF0000" d="M458.5,142.775c-3.161-8.52-8.555-19.09-14.268-25.642l14.268,5.161l14.265-5.161
				C467.052,123.686,461.658,134.256,458.5,142.775z"/>
		</g>
	</g>
</g>
<g>
	<g>
		<line fill="none" stroke="#FF0000" stroke-width="3" stroke-miterlimit="10" x1="458.5" y1="221.775" x2="458.5" y2="276.775"/>
		<g>
			<path fill="#FF0000" d="M458.5,294.775c-3.161-8.52-8.555-19.09-14.268-25.643l14.268,5.161l14.265-5.161
				C467.052,275.686,461.658,286.256,458.5,294.775z"/>
		</g>
	</g>
</g>
<g>
	<g>
		<line fill="none" stroke="#006837" stroke-width="3" stroke-miterlimit="10" x1="142.5" y1="68.775" x2="142.5" y2="123.775"/>
		<g>
			<path fill="#006837" d="M142.5,141.775c-3.161-8.52-8.555-19.09-14.268-25.642l14.268,5.161l14.265-5.161
				C151.052,122.686,145.658,133.256,142.5,141.775z"/>
		</g>
	</g>
</g>
<g>
	<g>
		<line fill="none" stroke="#006837" stroke-width="3" stroke-miterlimit="10" x1="142.5" y1="220.775" x2="142.5" y2="275.775"/>
		<g>
			<path fill="#006837" d="M142.5,293.775c-3.161-8.52-8.555-19.09-14.268-25.643l14.268,5.161l14.265-5.161
				C151.052,274.686,145.658,285.256,142.5,293.775z"/>
		</g>
	</g>
</g>
<g>
	<path fill="#FF0000" d="M449.062,80.031h3.814l5.766,9.896l5.871-9.896h3.814l-7.857,12.34l8.42,13.904h-3.814l-6.434-11.303
		l-6.943,11.303h-3.832l8.789-13.904L449.062,80.031z"/>
</g>
<g>
	<path fill="#FF0000" d="M449.062,231.031h3.814l5.766,9.896l5.871-9.896h3.814l-7.857,12.34l8.42,13.904h-3.814l-6.434-11.303
		l-6.943,11.303h-3.832l8.789-13.904L449.062,231.031z"/>
</g>
<g>
</g>
<g>
</g>
<g>
</g>
<g>
</g>
<g>
</g>
<g>
</g>
<g>
</g>
<g>
</g>
<g>
</g>
<g>
</g>
<g>
</g>
<g>
</g>
<g>
</g>
<g>
</g>
<g>
</g>
<g>
</g>
</svg>
